# xmcd CD database file
# Copyright (C) 1997 Ti Kan
# 
# Track frame offsets:
#     183
#     17938
#     34743
#     54180
#     75703
#     96753
#     120530
#     140655
#     162250
#     187668
# 
# Disc length: 2746 seconds
# 
# Revision: 1
# Processed by: cddbd v1.4b41PL1 Copyright (c) Steve Scherf et al.
# Submitted via: DiscPlay 4.0.4
# 
DISCID=760ab80a
DTITLE=Modest Fok - Love or the Single Life
DYEAR=1900
DGENRE=
TTITLE0=Love or the Single Life
TTITLE1=Hard to Be Righteous
TTITLE2=Promise Me
TTITLE3=After All Said and Done
TTITLE4=Getting It On
TTITLE5=Lay Me Down
TTITLE6=I'll Be Lovin' You
TTITLE7=Come to Me
TTITLE8=Forever
TTITLE9=I Don't Know
EXTD=
EXTT0=
EXTT1=
EXTT2=
EXTT3=
EXTT4=
EXTT5=
EXTT6=
EXTT7=
EXTT8=
EXTT9=
PLAYORDER=
